<?xml version="1.0" encoding="UTF-8"?><svg id="b" xmlns="http://www.w3.org/2000/svg" xmlns:xlink="http://www.w3.org/1999/xlink" viewBox="0 0 120 120"><defs><style>.f{fill:url(#d);}.g{fill:url(#e);}.h{fill:none;}</style><radialGradient id="d" cx="60" cy="39.02" fx="60" fy="39.02" r="51.73" gradientUnits="userSpaceOnUse"><stop offset="0" stop-color="#587176"/><stop offset=".23" stop-color="#526b71"/><stop offset=".53" stop-color="#415b66"/><stop offset=".86" stop-color="#264253"/><stop offset=".99" stop-color="#1a364a"/></radialGradient><radialGradient id="e" cx="60" cy="55.06" fx="60" fy="55.06" r="55.24" gradientUnits="userSpaceOnUse"><stop offset="0" stop-color="#4afff2"/><stop offset=".45" stop-color="#49fdf2"/><stop offset=".61" stop-color="#49f6f2"/><stop offset=".73" stop-color="#49eaf3"/><stop offset=".82" stop-color="#48d9f4"/><stop offset=".9" stop-color="#47c3f6"/><stop offset=".97" stop-color="#46a9f8"/><stop offset="1" stop-color="#469cf9"/></radialGradient></defs><g id="c"><g><path class="f" d="m115.21,52c.23-9.03,16.03-44.94-11.07-46.29-27.1-1.36-40.2,50.81-44.15,50.81S42.95,4.36,15.85,5.71C-11.25,7.07,4.56,42.97,4.79,52c.23,9.03-1.65,21.92,2.94,28.45,1.3,1.85,5.87,7.23,12.42,6.77,0,0-.34,2.94.45,4.06.79,1.13,3.05,1.69,3.05,1.69,0,0-.79,4.06.68,5.42,1.47,1.35,3.39.79,3.39.79,0,0-8.36,10.5-.9,14.34,7.45,3.84,13.44-7.68,13.89-11.29,0,0,5.42.79,10.27-6.1,4.86-6.89,6.49-22.69,9.03-22.81,2.54.11,4.18,15.92,9.03,22.81,4.86,6.89,10.27,6.1,10.27,6.1.45,3.61,6.44,15.13,13.89,11.29,7.45-3.84-.9-14.34-.9-14.34,0,0,1.92.56,3.39-.79,1.47-1.35.68-5.42.68-5.42,0,0,2.26-.56,3.05-1.69.79-1.13.45-4.06.45-4.06,6.55.45,11.12-4.93,12.42-6.77,4.59-6.53,2.71-19.42,2.94-28.45Z"/><path class="g" d="m75.24,34.25c-1.19-.85,4.91-11.26,10.59-16.26,5.67-5,13.04-8.89,16-5.59,5.11,5.69-12.18,19.18-14.35,20.83-.14.11-.31.18-.49.21-1.69.26-10.68,1.57-11.75.8Zm14.05.75c3.05.87,6.89,5.09,7.96,6.33.17.2.46.24.68.1,2.81-1.74,19.6-12.6,13.1-19.75-3.71-4.08-18.26,8.91-21.97,12.34-.33.3-.2.85.23.97Zm8.93,23.31c-.38.28-.54.77-.42,1.22.9,3.55.92,5.88.86,6.85-.01.24.23.41.45.32,2.96-1.25,17.89-7.9,12.37-13.23-2.7-2.61-10.93,3.12-13.27,4.84Zm1.01,9.48c-.2.02-.39.11-.52.27l-5.89,6.87c-.13.15-.09.38.07.48,8.34,5.39,19.75,3.78,18.38-2.18-1.38-5.99-10.24-5.58-12.03-5.44Zm-6.62,8.53c-.17-.07-.35-.1-.53-.1l-11.32.26c-.35,0-.55.41-.33.69,5.06,6.3,17.48,9.05,19.88,6.11,2.25-2.76-6.12-6.31-7.7-6.96Zm-1.81,8.2c-.17-.04-.36.01-.48.14l-1.99,2.14c-.21.22-.17.57.08.75,1.63,1.11,7.07,4.5,8.79,1.87,1.81-2.77-4.92-4.55-6.41-4.9Zm-3.7,2.98c-.06.04-.14.08-.22.13-1.64,1-3.47,1.66-5.38,1.92l-1.22.17c-.22.03-.34.26-.25.45.81,1.65,4.14,7.88,7.38,6.61,3.27-1.29.8-7.61.15-9.14-.08-.18-.29-.25-.46-.14Zm-9.53,2.9h-7.57c-.28,0-.5.27-.42.54,1.23,3.97,5.97,8.96,9.13,7.82,2.96-1.06-.1-6.93-.77-8.15-.08-.14-.22-.22-.38-.22Zm19.82-44.6c-.58.58-.93,1.35-1,2.17l-.24,2.88c-.05.66-.27,1.3-.64,1.85l-1.62,2.45c-.47.72.08,1.66.94,1.6l1.04-.07c1.52-.11,2.98-.58,4.28-1.38,5.54-3.43,20.14-13.23,14.9-18.34-4.22-4.11-14.55,5.71-17.65,8.85Zm-29.45,14.87c-.55.43-.5,1.26.08,1.64,2.17,1.4,5.24,2.51,7.21,2.47,2.33-.06,4.95-2.26,4.89-4.35s-.84-3.44-4.29-3.56c-2.52-.08-6.14,2.44-7.89,3.8Zm5.93,6.62c-1.87-.86-3.84-.95-6.79-4.81-.22-.28-.67-.12-.65.23.13,2.47.85,8.18,4.8,9.6,5.08,1.83,5.53-3.7,2.63-5.02Zm5.83,1.46c1,0,1.81-.56,1.81-1.24s-.81-1.24-1.81-1.24-1.81.56-1.81,1.24.81,1.24,1.81,1.24Zm.7-15.29c0-.66-.56-1.2-1.26-1.2s-1.26.54-1.26,1.2.56,1.2,1.26,1.2,1.26-.54,1.26-1.2Zm-7.19-3.9c-4.66-2.71-9.23,6.35-7.28,7.88,1.95,1.52,12.31-4.95,7.28-7.88Zm-40.7-16.34c.14.11.31.18.49.21,1.69.26,10.68,1.57,11.75.8,1.19-.85-4.91-11.26-10.59-16.26-5.67-5-13.04-8.89-16.01-5.59-5.11,5.69,12.18,19.18,14.35,20.83Zm-10.45,8.2c.22.14.51.1.68-.1,1.07-1.24,4.91-5.47,7.96-6.33.43-.12.55-.66.23-.97-3.71-3.44-18.26-16.42-21.97-12.34-6.5,7.15,10.29,18.01,13.1,19.75Zm-1.18,25.27c.22.09.47-.08.45-.32-.05-.98-.04-3.3.86-6.85.12-.46-.04-.94-.42-1.22-2.33-1.72-10.56-7.44-13.27-4.84-5.52,5.33,9.41,11.98,12.37,13.23Zm6.3,8.23l-5.89-6.87c-.13-.15-.32-.25-.52-.27-1.79-.15-10.65-.55-12.03,5.44-1.37,5.96,10.03,7.57,18.38,2.18.16-.11.2-.34.07-.48Zm12.39,2.24c.22-.27.01-.68-.33-.69l-11.32-.26c-.18,0-.36.03-.53.1-1.59.64-9.96,4.19-7.7,6.96,2.4,2.95,14.82.2,19.88-6.11Zm-7.91,9.64l-1.99-2.14c-.12-.13-.3-.19-.48-.14-1.49.36-8.22,2.14-6.41,4.9,1.72,2.63,7.15-.77,8.79-1.87.25-.17.29-.52.08-.75Zm8.05,2.92l-1.22-.17c-1.9-.27-3.74-.92-5.38-1.92-.08-.05-.15-.1-.22-.13-.17-.1-.38-.04-.46.14-.66,1.54-3.12,7.86.15,9.14,3.24,1.28,6.56-4.96,7.38-6.61.1-.2-.03-.42-.25-.45Zm10.27.67h-7.57c-.16,0-.3.08-.38.22-.67,1.21-3.72,7.09-.77,8.15,3.16,1.13,7.9-3.86,9.13-7.82.08-.27-.13-.54-.42-.54Zm-30.14-35.11c1.29.8,2.76,1.27,4.28,1.38l1.04.07c.86.06,1.41-.89.93-1.6l-1.62-2.45c-.37-.55-.59-1.19-.64-1.85l-.24-2.88c-.07-.82-.42-1.58-1-2.17-3.1-3.14-13.43-12.97-17.65-8.85-5.24,5.1,9.35,14.91,14.9,18.34Zm32.12,7.03c.59-.38.63-1.21.08-1.64-1.75-1.35-5.37-3.88-7.89-3.8-3.44.11-4.23,1.47-4.29,3.56-.06,2.09,2.55,4.29,4.89,4.35,1.97.05,5.04-1.07,7.21-2.47Zm.94.17c-2.95,3.86-4.92,3.95-6.79,4.81-2.9,1.33-2.45,6.86,2.63,5.02,3.95-1.43,4.68-7.13,4.8-9.6.02-.35-.43-.51-.65-.23Zm-14.43,5.03c0,.69.81,1.24,1.81,1.24s1.81-.56,1.81-1.24-.81-1.24-1.81-1.24-1.81.56-1.81,1.24Zm2.37-12.85c.7,0,1.26-.54,1.26-1.2s-.56-1.2-1.26-1.2-1.26.54-1.26,1.2.56,1.2,1.26,1.2Zm5.93-5.09c-5.02,2.92,5.34,9.4,7.28,7.88,1.95-1.52-2.63-10.59-7.28-7.88Z"/></g><rect class="h" width="120" height="120"/></g></svg>